<svg width="17" height="17" viewBox="0 0 17 17" fill="none" xmlns="http://www.w3.org/2000/svg">
<path d="M1.79368 6.91214C1.50211 6.91214 1.44066 6.90992 1.3973 6.90314C1.07952 6.85347 0.808891 6.57445 0.768938 6.2553C0.763394 6.21101 0.762914 6.15777 0.771055 5.8911C0.806576 4.72752 0.90035 4.03296 1.10755 3.47631C1.49818 2.42686 2.032 1.81876 2.84588 1.36257C3.55015 0.967809 4.65696 0.75 6.92623 0.75H10.0738C12.343 0.75 13.4498 0.967809 14.1541 1.36257C14.968 1.81876 15.5018 2.42687 15.8925 3.47631C16.0996 4.03296 16.1934 4.72751 16.2289 5.89109C16.2371 6.15777 16.2366 6.21102 16.2311 6.25531C16.1911 6.57445 15.9205 6.85347 15.6027 6.90314C15.5593 6.90992 15.4979 6.91214 15.2063 6.91214C14.1918 6.91214 13.616 7.86039 13.616 8.69333C13.616 9.52627 14.1918 10.4745 15.2063 10.4745C15.4888 10.4745 15.5475 10.4767 15.5907 10.4833C15.9077 10.5324 16.1872 10.8251 16.2216 11.1441C16.2264 11.1886 16.2262 11.2358 16.2148 11.4821C16.1711 12.4284 16.0755 13.0319 15.8925 13.5237C15.5018 14.5731 14.968 15.1812 14.1541 15.6374C13.4498 16.0322 12.343 16.25 10.0738 16.25H6.92623C4.65696 16.25 3.55015 16.0322 2.84588 15.6374C2.032 15.1812 1.49818 14.5731 1.10755 13.5237C0.924508 13.0319 0.828871 12.4284 0.785191 11.4821C0.773821 11.2358 0.773618 11.1887 0.778428 11.1441C0.812839 10.8251 1.09234 10.5324 1.40935 10.4833C1.45249 10.4767 1.51122 10.4745 1.79368 10.4745C2.80818 10.4745 3.38401 9.52627 3.38401 8.69333C3.38401 7.86039 2.80818 6.91214 1.79368 6.91214Z" stroke="#727191" stroke-width="1.5"/>
<path fill-rule="evenodd" clip-rule="evenodd" d="M10.625 2.79166C11.0392 2.79166 11.375 3.12745 11.375 3.54166V4.95833C11.375 5.37254 11.0392 5.70833 10.625 5.70833C10.2108 5.70833 9.875 5.37254 9.875 4.95833L9.875 3.54166C9.875 3.12745 10.2108 2.79166 10.625 2.79166ZM10.625 7.04167C11.0392 7.04167 11.375 7.37745 11.375 7.79167V9.20833C11.375 9.62255 11.0392 9.95833 10.625 9.95833C10.2108 9.95833 9.875 9.62255 9.875 9.20833L9.875 7.79167C9.875 7.37745 10.2108 7.04167 10.625 7.04167ZM11.375 12.0417C11.375 11.6275 11.0392 11.2917 10.625 11.2917C10.2108 11.2917 9.875 11.6275 9.875 12.0417L9.875 13.4583C9.875 13.8725 10.2108 14.2083 10.625 14.2083C11.0392 14.2083 11.375 13.8725 11.375 13.4583V12.0417Z" fill="#727191"/>
</svg>
