<svg width="17" height="19" viewBox="0 0 17 19" fill="none" xmlns="http://www.w3.org/2000/svg">
<path d="M6.05273 16.8947C7.23694 17.9473 9.60537 17.9473 10.7896 16.8947" stroke="#ECEBF6" stroke-width="1.57895" stroke-linecap="round" stroke-linejoin="round"/>
<path fill-rule="evenodd" clip-rule="evenodd" d="M9.20946 1.14633C9.21015 1.13273 9.21051 1.11904 9.21051 1.10527C9.21051 0.669255 8.85705 0.315796 8.42103 0.315796C7.98502 0.315796 7.63156 0.669255 7.63156 1.10527C7.63156 1.11906 7.63191 1.13277 7.63261 1.14638C4.98976 1.52735 2.50297 4.49958 2.89483 7.81575C3.09778 8.83053 2.45875 9.36816 1.79361 9.92775C1.16509 10.4565 0.513276 11.0049 0.526567 11.994C0.526567 13.3803 1.31585 14.1315 2.47502 14.5041C2.47502 14.5041 4.59799 15.3158 8.4212 15.3158C12.2444 15.3158 14.3674 14.5041 14.3674 14.5041C15.5265 14.1315 16.316 13.3421 16.3158 11.994C16.3157 10.9964 15.6643 10.4478 15.0393 9.92145C14.3771 9.36379 13.7445 8.8311 13.9476 7.81575C14.018 7.21955 13.9954 6.63446 13.8956 6.07355C13.4864 6.4191 12.9585 6.62843 12.3817 6.63159C12.4167 6.94268 12.4192 7.26055 12.3851 7.58105C12.2286 8.45586 12.4162 9.21936 12.8143 9.85267C13.1598 10.4022 13.6455 10.8116 13.943 11.0624L13.9655 11.0814C14.7132 11.7121 14.7369 11.8102 14.7369 11.9942C14.7369 12.3385 14.6448 12.5059 14.5613 12.6066C14.4606 12.7278 14.2622 12.8794 13.8842 13.0009L13.8435 13.014L13.8094 13.027L13.8069 13.0279C13.8 13.0304 13.785 13.0358 13.7621 13.0435C13.7163 13.059 13.6388 13.0843 13.5305 13.1161C13.3138 13.1798 12.9737 13.27 12.5166 13.362C11.6027 13.5458 10.2206 13.7368 8.4212 13.7368C6.62178 13.7368 5.23968 13.5458 4.32581 13.362C3.86875 13.27 3.52863 13.1798 3.31192 13.1161C3.20356 13.0843 3.12608 13.059 3.08029 13.0435C3.0574 13.0358 3.04243 13.0304 3.0355 13.0279L3.03296 13.027L2.99891 13.014L2.95817 13.0009C2.56241 12.8737 2.36886 12.7253 2.27544 12.614C2.20237 12.527 2.10551 12.366 2.10551 11.994V11.9834L2.10537 11.9728C2.10326 11.8157 2.10719 11.7283 2.86592 11.089L2.8887 11.0698C3.18775 10.818 3.67473 10.4079 4.02193 9.85894C4.42189 9.22653 4.6146 8.46077 4.45732 7.58111C4.32126 6.3036 4.76687 5.06783 5.53965 4.13651C6.3387 3.17355 7.35555 2.68417 8.19936 2.68417H8.64305C9.14522 2.68417 9.70869 2.8575 10.2511 3.20083C10.4991 2.70743 10.9145 2.31267 11.4228 2.09109C10.744 1.59157 9.98341 1.25783 9.20946 1.14633Z" fill="#ECEBF6"/>
<circle cx="12.3685" cy="4.26318" r="1.57895" fill="#9E90EE"/>
</svg>
