<svg width="20" height="20" viewBox="0 0 20 20" fill="none" xmlns="http://www.w3.org/2000/svg">
<path fill-rule="evenodd" clip-rule="evenodd" d="M8.40006 15.494H3.14923C2.80423 15.494 2.52423 15.214 2.52423 14.869C2.52423 14.524 2.80423 14.244 3.14923 14.244H8.40006C8.74506 14.244 9.02506 14.524 9.02506 14.869C9.02506 15.214 8.74506 15.494 8.40006 15.494Z" fill="#ECEBF6" fill-opacity="0.62"/>
<path fill-rule="evenodd" clip-rule="evenodd" d="M15.9924 7.417H10.7424C10.3974 7.417 10.1174 7.137 10.1174 6.792C10.1174 6.447 10.3974 6.167 10.7424 6.167H15.9924C16.3374 6.167 16.6174 6.447 16.6174 6.792C16.6174 7.137 16.3374 7.417 15.9924 7.417Z" fill="#ECEBF6" fill-opacity="0.62"/>
<mask id="mask0_1_2550" style="mask-type:luminance" maskUnits="userSpaceOnUse" x="2" y="4" width="6" height="6">
<path fill-rule="evenodd" clip-rule="evenodd" d="M2.5 4.167H7.68817V9.32667H2.5V4.167Z" fill="white"/>
</mask>
<g mask="url(#mask0_1_2550)">
<path fill-rule="evenodd" clip-rule="evenodd" d="M5.09401 5.41667C4.35318 5.41667 3.74985 6.01333 3.74985 6.7475C3.74985 7.48083 4.35318 8.07667 5.09401 8.07667C5.83568 8.07667 6.43818 7.48083 6.43818 6.7475C6.43818 6.01333 5.83568 5.41667 5.09401 5.41667ZM5.09398 9.3266C3.66398 9.3266 2.49982 8.16994 2.49982 6.74744C2.49982 5.32494 3.66398 4.1666 5.09398 4.1666C6.52482 4.1666 7.68815 5.32494 7.68815 6.74744C7.68815 8.16994 6.52482 9.3266 5.09398 9.3266Z" fill="#ECEBF6" fill-opacity="0.62"/>
</g>
<path fill-rule="evenodd" clip-rule="evenodd" d="M14.4897 13.5067C13.7481 13.5067 13.1447 14.1033 13.1447 14.8367C13.1447 15.5708 13.7481 16.1667 14.4897 16.1667C15.2306 16.1667 15.8331 15.5708 15.8331 14.8367C15.8331 14.1033 15.2306 13.5067 14.4897 13.5067ZM14.4897 17.4167C13.0589 17.4167 11.8947 16.2592 11.8947 14.8367C11.8947 13.4142 13.0589 12.2567 14.4897 12.2567C15.9197 12.2567 17.083 13.4142 17.083 14.8367C17.083 16.2592 15.9197 17.4167 14.4897 17.4167Z" fill="#ECEBF6" fill-opacity="0.62"/>
</svg>
