<svg width="21" height="21" viewBox="0 0 21 21" fill="none" xmlns="http://www.w3.org/2000/svg">
<path fill-rule="evenodd" clip-rule="evenodd" d="M8.0796 1.67584C8.87646 1.67668 9.63561 2.05709 10.1115 2.69307L10.8749 3.70863C11.117 4.03039 11.5016 4.22227 11.9038 4.22311H14.2743C17.5103 4.22311 19.0178 5.88134 19.0178 9.44165L18.9943 13.6036C18.9935 16.9284 16.9272 18.9947 13.6006 18.9947H7.07996C3.74673 18.9947 1.6754 16.9276 1.6754 13.6011V7.06616C1.6754 3.48909 3.2666 1.67584 6.40376 1.67584H8.0796ZM8.07876 2.93272H6.40376C3.97045 2.93272 2.93227 4.16948 2.93227 7.06616V13.6011C2.93227 16.269 4.40533 17.7379 7.07996 17.7379H13.6006C16.2686 17.7379 17.7374 16.269 17.7374 13.6011V13.5986L17.7609 9.4383C17.7609 6.59022 16.7839 5.47998 14.2743 5.47998H11.903C11.1078 5.47915 10.3487 5.09957 9.87106 4.46443L9.10605 3.4472C8.86556 3.1246 8.48096 2.93356 8.07876 2.93272ZM14.0064 11.9091C14.3532 11.9091 14.6348 12.1907 14.6348 12.5376C14.6348 12.8845 14.3532 13.166 14.0064 13.166H6.68715C6.34025 13.166 6.05871 12.8845 6.05871 12.5376C6.05871 12.1907 6.34025 11.9091 6.68715 11.9091H14.0064Z" fill="#727190"/>
</svg>
