<svg width="18" height="19" viewBox="0 0 18 19" fill="none" xmlns="http://www.w3.org/2000/svg">
<path fill-rule="evenodd" clip-rule="evenodd" d="M5.40526 2.89397C5.36128 3.12251 5.11868 3.25633 4.89611 3.18021C1.06854 1.87112 -1.76875 6.66584 1.30043 9.2132C1.48175 9.36369 1.48175 9.63631 1.30043 9.7868C-1.76875 12.3342 1.06854 17.1289 4.89611 15.8198C5.11868 15.7437 5.36128 15.8775 5.40526 16.106C6.14781 19.9647 11.8522 19.9647 12.5947 16.106C12.6387 15.8775 12.8813 15.7437 13.1039 15.8198C16.9315 17.1289 19.7688 12.3342 16.6996 9.7868C16.5183 9.63631 16.5183 9.36369 16.6996 9.2132C19.7688 6.66584 16.9315 1.87112 13.1039 3.18021C12.8813 3.25633 12.6387 3.12252 12.5947 2.89397C11.8522 -0.964657 6.14781 -0.964657 5.40526 2.89397ZM7.01227 3.1841C7.423 1.04975 10.577 1.04975 10.9877 3.1841C11.2153 4.36675 12.4779 5.07344 13.6482 4.6732C15.7602 3.95086 17.3372 6.59888 15.6359 8.0109C14.6932 8.79331 14.6932 10.2067 15.6359 10.9891C17.3372 12.4011 15.7602 15.0491 13.6482 14.3268C12.4779 13.9266 11.2153 14.6332 10.9877 15.8159C10.577 17.9503 7.423 17.9503 7.01227 15.8159C6.78468 14.6332 5.52209 13.9266 4.35183 14.3268C2.23983 15.0491 0.66283 12.4011 2.36409 10.9891C3.30677 10.2067 3.30677 8.79331 2.36409 8.0109C0.66283 6.59888 2.23983 3.95086 4.35183 4.6732C5.52209 5.07344 6.78468 4.36675 7.01227 3.1841Z" fill="#727190"/>
<path fill-rule="evenodd" clip-rule="evenodd" d="M5.73059 9.50001C5.73059 11.2489 7.19434 12.6667 8.99996 12.6667C10.8056 12.6667 12.2693 11.2489 12.2693 9.50001C12.2693 7.75111 10.8056 6.33334 8.99996 6.33334C7.19434 6.33334 5.73059 7.75111 5.73059 9.50001ZM7.36528 9.50001C7.36528 10.3745 8.09715 11.0833 8.99996 11.0833C9.90278 11.0833 10.6346 10.3745 10.6346 9.50001C10.6346 8.62556 9.90278 7.91668 8.99996 7.91668C8.09715 7.91668 7.36528 8.62556 7.36528 9.50001Z" fill="#727190"/>
</svg>
