<svg width="18" height="18" viewBox="0 0 18 18" fill="none" xmlns="http://www.w3.org/2000/svg">
<path d="M0.75 9C0.75 10.8358 0.849343 12.2598 1.09615 13.3703C1.34105 14.4723 1.72108 15.219 2.25102 15.749C2.78095 16.2789 3.52774 16.6589 4.62973 16.9039C5.74025 17.1507 7.16424 17.25 9 17.25C12.1482 17.25 14.0326 16.952 15.1981 16.1936C16.2853 15.486 16.8893 14.2705 17.128 11.9241C17.2134 11.0837 17.25 10.116 17.25 9C17.25 7.88396 17.2134 6.91629 17.128 6.07588C16.8893 3.72953 16.2853 2.51399 15.1981 1.80644C14.0326 1.048 12.1482 0.75 9 0.75C7.16424 0.75 5.74025 0.849342 4.62973 1.09615C3.52774 1.34105 2.78095 1.72108 2.25102 2.25102C1.72108 2.78095 1.34105 3.52774 1.09615 4.62973C0.849343 5.74025 0.75 7.16424 0.75 9Z" stroke="#727190" stroke-width="1.5" stroke-linecap="round" stroke-linejoin="round"/>
</svg>
